<?xml version="1.0" encoding="UTF-8"?>
<svg width="100px" height="160px" viewBox="0 0 100 160" version="1.1" xmlns="http://www.w3.org/2000/svg" xmlns:xlink="http://www.w3.org/1999/xlink">
    <!-- Generator: Sketch 56.3 (81716) - https://sketch.com -->
    <title>flux-logo</title>
    <desc>Created with Sketch.</desc>
    <g id="flux-logo" stroke="none" stroke-width="1" fill="none" fill-rule="evenodd">
        <g id="Group" transform="translate(1.000000, 1.000000)">
            <path d="M13.3921,27.3505 C11.5731,26.1675 11.5731,23.5045 13.3921,22.3225 L46.9821,0.4845 C47.9761,-0.1615 49.2571,-0.1615 50.2511,0.4845 L83.8421,22.3225 C85.6611,23.5045 85.6611,26.1675 83.8421,27.3505 L50.2511,49.1885 C49.2571,49.8345 47.9761,49.8345 46.9821,49.1885 L13.3921,27.3505 Z" id="Fill-1" fill="#326CE5"></path>
            <path d="M53.9209,31.204 L56.2509,31.204 C57.6119,31.204 58.4629,29.731 57.7819,28.553 L50.1479,15.33 C49.4679,14.152 47.7669,14.152 47.0859,15.33 L39.4519,28.553 C38.7719,29.731 39.6219,31.204 40.9829,31.204 L43.3139,31.204 C44.2899,31.204 45.0809,31.996 45.0809,32.972 L45.0809,48.065 L46.6449,49.082 C47.8439,49.862 49.3899,49.862 50.5889,49.082 L52.1529,48.065 L52.1529,32.972 C52.1529,31.996 52.9439,31.204 53.9209,31.204" id="Fill-3" fill="#C1D2F7"></path>
            <path d="M60.2544,60.3851 L52.1524,55.1181 L52.1524,57.6141 C54.7964,58.7461 57.5154,59.6281 60.2544,60.3851" id="Fill-5" fill="#326CE5"></path>
            <path d="M52.1528,62.1019 L52.1528,65.6059 C54.8298,66.4229 57.5388,67.0939 60.2198,67.7549 C68.9758,69.9139 77.2458,71.9519 83.8958,78.6029 C84.2338,78.9399 84.5508,79.2839 84.8648,79.6289 C85.5468,78.3259 85.2048,76.6059 83.8408,75.7199 L70.6838,67.1649 C67.4898,66.1109 64.2358,65.3049 61.0198,64.5129 C57.9868,63.7649 55.0208,63.0189 52.1528,62.1019" id="Fill-7" fill="#326CE5"></path>
            <path d="M45.0811,59.2279 C43.9461,58.6419 42.8281,58.0129 41.7491,57.2849 L38.7401,59.2409 C40.7691,60.7329 42.8941,61.9429 45.0811,62.9569 L45.0811,59.2279 Z" id="Fill-9" fill="#326CE5"></path>
            <path d="M55.1499,70.3822 C54.1439,70.1342 53.1449,69.8872 52.1529,69.6342 L52.1529,73.0782 C52.8869,73.2622 53.6199,73.4452 54.3499,73.6252 C63.1059,75.7832 71.3759,77.8212 78.0269,84.4722 C78.0379,84.4842 78.0479,84.4952 78.0599,84.5072 L80.9039,82.6572 C80.7309,82.4762 80.5679,82.2902 80.3879,82.1112 C73.0799,74.8022 63.9639,72.5552 55.1499,70.3822" id="Fill-11" fill="#326CE5"></path>
            <path d="M45.0811,67.5839 C41.2761,66.2809 37.6701,64.6039 34.3801,62.0749 L31.4341,63.9909 C35.6231,67.4459 40.2871,69.5419 45.0811,71.0959 L45.0811,67.5839 Z" id="Fill-13" fill="#326CE5"></path>
            <path d="M45.0811,75.1937 C38.5321,73.4777 32.3731,71.3817 27.1111,66.8007 L24.2151,68.6837 C30.3951,74.3777 37.7471,76.7577 45.0811,78.6427 L45.0811,75.1937 Z" id="Fill-15" fill="#326CE5"></path>
            <path d="M52.1528,80.4154 C59.0038,82.1844 65.4458,84.2994 70.9028,89.1594 L73.7828,87.2874 C67.4068,81.2934 59.7558,78.9004 52.1528,76.9684 L52.1528,80.4154 Z" id="Fill-17" fill="#326CE5"></path>
            <path d="M19.9365,71.4652 L17.0785,73.3232 C17.1785,73.4262 17.2695,73.5332 17.3725,73.6352 C24.6815,80.9442 33.7955,83.1912 42.6105,85.3642 C50.2445,87.2452 57.5075,89.0392 63.6515,93.8742 L66.5815,91.9692 C59.6595,86.1412 51.4135,84.0942 43.4105,82.1222 C34.7425,79.9852 26.5525,77.9582 19.9365,71.4652" id="Fill-19" fill="#326CE5"></path>
            <path d="M13.8643,77.1439 C13.5313,76.8109 13.2183,76.4719 12.9083,76.1309 C11.6053,77.4359 11.7583,79.6859 13.3923,80.7479 L23.2833,87.1789 C27.6613,88.9909 32.2393,90.1239 36.7413,91.2339 C43.7693,92.9659 50.4833,94.6269 56.3003,98.6539 L59.2913,96.7079 C52.6773,91.7359 45.0033,89.8309 37.5403,87.9909 C28.7853,85.8329 20.5153,83.7949 13.8643,77.1439" id="Fill-21" fill="#326CE5"></path>
            <path d="M46.0498,101.9794 C46.7088,102.2994 47.3598,102.6364 47.9998,102.9984 C48.7628,103.1594 49.5738,103.0264 50.2518,102.5854 L51.9118,101.5064 C46.5788,97.9394 40.6498,96.1324 34.7408,94.6274 L46.0498,101.9794 Z" id="Fill-23" fill="#326CE5"></path>
            <path d="M13.938,113.4007 C11.277,113.4007 9.133,114.2667 7.507,115.9987 C5.881,117.7307 5.068,120.1797 5.068,123.3477 L5.068,125.6917 L4.97379915e-14,125.6917 L4.97379915e-14,129.9357 L5.068,129.9357 L5.068,156.2917 L9.82,156.2917 L9.82,129.9357 L16.029,129.9357 L16.029,125.6917 L9.82,125.6917 L9.82,123.3477 C9.82,121.4047 10.232,119.9157 11.055,118.8807 C11.879,117.8457 13.072,117.3287 14.635,117.3287 C15.226,117.3287 15.743,117.4027 16.187,117.5497 C16.63,117.6987 17.021,117.8787 17.359,118.0887 L18.563,114.4777 C17.971,114.0977 17.274,113.8227 16.472,113.6537 C15.669,113.4857 14.825,113.4007 13.938,113.4007" id="Fill-25" fill="#1A1A1A"></path>
            <polygon id="Fill-27" fill="#1A1A1A" points="23.667 156.2914 28.419 156.2914 28.419 114.0344 23.667 114.0344"></polygon>
            <path d="M57.6377,148.182 C56.7507,149.408 55.4837,150.485 53.8367,151.413 C52.1897,152.343 50.4357,152.807 48.5777,152.807 C47.5647,152.807 46.6357,152.702 45.7907,152.49 C44.9457,152.279 44.2167,151.899 43.6047,151.35 C42.9917,150.801 42.5277,150.082 42.2107,149.196 C41.8947,148.309 41.7357,147.19 41.7357,145.838 L41.7357,125.691 L36.9847,125.691 L36.9847,147.295 C36.9847,150.632 37.8077,153.092 39.4547,154.676 C41.1027,156.26 43.5307,157.052 46.7417,157.052 C49.0217,157.052 51.1127,156.545 53.0127,155.531 C54.9137,154.517 56.4547,153.335 57.6377,151.983 L57.6377,156.291 L62.3897,156.291 L62.3897,125.691 L57.6377,125.691 L57.6377,148.182 Z" id="Fill-29" fill="#1A1A1A"></path>
            <polygon id="Fill-30" fill="#1A1A1A" points="85.4502 140.5795 96.5372 125.6915 91.0252 125.6915 82.5352 137.3485 74.0462 125.6915 68.5342 125.6915 79.6212 140.5795 67.9012 156.2915 73.3492 156.2915 82.5352 143.7465 91.7222 156.2915 97.2342 156.2915"></polygon>
        </g>
    </g>
</svg>