<?xml version="1.0" encoding="UTF-8"?>
<svg width="165px" height="66px" viewBox="0 0 165 66" version="1.1" xmlns="http://www.w3.org/2000/svg" xmlns:xlink="http://www.w3.org/1999/xlink">
    <!-- Generator: Sketch 56.3 (81716) - https://sketch.com -->
    <title>flux-logo-vertical</title>
    <desc>Created with Sketch.</desc>
    <g id="flux-logo-vertical" stroke="none" stroke-width="1" fill="none" fill-rule="evenodd">
        <g id="Group-2" transform="translate(1.000000, 1.000000)">
            <path d="M0.829611486,16.8310769 C-0.276537162,16.1030769 -0.276537162,14.4643077 0.829611486,13.7369231 L21.2559628,0.298153846 C21.8604223,-0.0993846154 22.6394088,-0.0993846154 23.2438682,0.298153846 L43.6708277,13.7369231 C44.7769764,14.4643077 44.7769764,16.1030769 43.6708277,16.8310769 L23.2438682,30.2698462 C22.6394088,30.6673846 21.8604223,30.6673846 21.2559628,30.2698462 L0.829611486,16.8310769 Z" id="Fill-1" fill="#326CE5"></path>
            <path d="M25.4755034,19.2024615 L26.8923953,19.2024615 C27.7200304,19.2024615 28.2375304,18.296 27.8234088,17.5710769 L23.1811115,9.43384615 C22.767598,8.70892308 21.7332061,8.70892308 21.3190845,9.43384615 L16.6767872,17.5710769 C16.2632736,18.296 16.7801655,19.2024615 17.6078007,19.2024615 L19.0253007,19.2024615 C19.6188142,19.2024615 20.0998277,19.6898462 20.0998277,20.2904615 L20.0998277,29.5784615 L21.0509088,30.2043077 C21.7800304,30.6843077 22.7201655,30.6843077 23.4492872,30.2043077 L24.4003682,29.5784615 L24.4003682,20.2904615 C24.4003682,19.6898462 24.8813818,19.2024615 25.4755034,19.2024615" id="Fill-3" fill="#C1D2F7"></path>
            <path d="M29.3269561,37.1600615 L24.4000642,33.9188308 L24.4000642,35.4548308 C26.007902,36.1514462 27.661348,36.6942154 29.3269561,37.1600615" id="Fill-5" fill="#326CE5"></path>
            <path d="M24.4003074,38.2165538 L24.4003074,40.3728615 C26.0282128,40.8756308 27.6755777,41.2885538 29.3059155,41.6953231 C34.6305101,43.0239385 39.6595642,44.2780923 43.7034831,48.3710154 C43.9090236,48.5784 44.1017939,48.7900923 44.2927399,49.0024 C44.7074696,48.2005538 44.4994966,47.1420923 43.6700372,46.5968615 L35.6691588,41.3322462 C33.7268615,40.6836308 31.7480777,40.1876308 29.792402,39.7002462 C27.9480101,39.2399385 26.1443615,38.7808615 24.4003074,38.2165538" id="Fill-7" fill="#326CE5"></path>
            <path d="M20.0999493,36.4479385 C19.4097466,36.0873231 18.7298818,35.7002462 18.0737331,35.2522462 L16.2439358,36.4559385 C17.4777872,37.3740923 18.7700169,38.1187077 20.0999493,38.7427077 L20.0999493,36.4479385 Z" id="Fill-9" fill="#326CE5"></path>
            <path d="M26.2228682,43.3121231 C25.6111115,43.1595077 25.0036115,43.0075077 24.4003682,42.8518154 L24.4003682,44.9712 C24.8467196,45.0844308 25.2924628,45.1970462 25.7363818,45.3078154 C31.0609764,46.6358154 36.0900304,47.8899692 40.1345574,51.9828923 C40.1412466,51.9902769 40.1473277,51.9970462 40.154625,52.0044308 L41.8840845,50.8659692 C41.7788818,50.7545846 41.6797601,50.6401231 41.5703007,50.5299692 C37.1262466,46.0321231 31.5827331,44.6493538 26.2228682,43.3121231" id="Fill-11" fill="#326CE5"></path>
            <path d="M20.0999493,41.5900923 C17.786098,40.7882462 15.5932601,39.7562462 13.5925845,38.1999385 L11.801098,39.3790154 C14.3484628,41.5051692 17.1846791,42.7950154 20.0999493,43.7513231 L20.0999493,41.5900923 Z" id="Fill-13" fill="#326CE5"></path>
            <path d="M20.0999493,46.2730462 C16.1174493,45.2170462 12.3721115,43.9272 9.17224662,41.1081231 L7.41116554,42.2668923 C11.1692736,45.7708923 15.6400845,47.2355077 20.0999493,48.3955077 L20.0999493,46.2730462 Z" id="Fill-15" fill="#326CE5"></path>
            <path d="M24.4003074,49.4864 C28.5664561,50.5750154 32.4838885,51.8765538 35.8023345,54.8673231 L37.5536858,53.7153231 C33.6763885,50.0267077 29.0237534,48.5540923 24.4003074,47.3651692 L24.4003074,49.4864 Z" id="Fill-17" fill="#326CE5"></path>
            <path d="M4.80931419,43.9785846 L3.07134122,45.1219692 C3.13215203,45.1853538 3.18748986,45.2512 3.250125,45.3139692 C7.69478716,49.8118154 13.2370845,51.1945846 18.5975574,52.5318154 C23.2398547,53.6893538 27.6565439,54.7933538 31.3927601,57.7687385 L33.1745169,56.5964308 C28.9651926,53.0099692 23.9507331,51.7502769 19.0840439,50.5367385 C13.8129628,49.2216615 8.83255743,47.9742769 4.80931419,43.9785846" id="Fill-19" fill="#326CE5"></path>
            <path d="M1.11676014,47.4731692 C0.914260135,47.2682462 0.723922297,47.0596308 0.535408784,46.8497846 C-0.256956081,47.6528615 -0.163915541,49.0374769 0.829733108,49.6910154 L6.84453041,53.6485538 C9.5068277,54.7636308 12.2907466,55.4608615 15.0284493,56.1439385 C19.3022331,57.2097846 23.3850709,58.2319385 26.9224358,60.7100923 L28.7412872,59.5125538 C24.7192601,56.4528615 20.0526385,55.2805538 15.5143277,54.1482462 C10.1903412,52.8202462 5.16128716,51.5660923 1.11676014,47.4731692" id="Fill-21" fill="#326CE5"></path>
            <path d="M20.6890236,62.7565538 C21.0897669,62.9534769 21.4856453,63.1608615 21.8748345,63.3836308 C22.3388209,63.4827077 22.8319966,63.4008615 23.2442939,63.1294769 L24.2537534,62.4654769 C21.0107128,60.2704 17.4052399,59.1584 13.8119291,58.2322462 L20.6890236,62.7565538 Z" id="Fill-23" fill="#326CE5"></path>
        </g>
        <g id="Group" transform="translate(66.000000, 10.000000)" fill="#1A1A1A">
            <path d="M13.938,3.90798505e-14 C11.277,3.90798505e-14 9.133,0.866 7.507,2.598 C5.881,4.33 5.068,6.779 5.068,9.947 L5.068,12.291 L4.97379915e-14,12.291 L4.97379915e-14,16.535 L5.068,16.535 L5.068,42.891 L9.82,42.891 L9.82,16.535 L16.029,16.535 L16.029,12.291 L9.82,12.291 L9.82,9.947 C9.82,8.004 10.232,6.515 11.055,5.48 C11.879,4.445 13.072,3.928 14.635,3.928 C15.226,3.928 15.743,4.002 16.187,4.149 C16.63,4.298 17.021,4.478 17.359,4.688 L18.563,1.077 C17.971,0.697 17.274,0.422 16.472,0.253 C15.669,0.085 14.825,3.90798505e-14 13.938,3.90798505e-14" id="Fill-25"></path>
            <polygon id="Fill-27" points="23.667 42.8907 28.419 42.8907 28.419 0.6337 23.667 0.6337"></polygon>
            <path d="M57.6377,34.7813 C56.7507,36.0073 55.4837,37.0843 53.8367,38.0123 C52.1897,38.9423 50.4357,39.4063 48.5777,39.4063 C47.5647,39.4063 46.6357,39.3013 45.7907,39.0893 C44.9457,38.8783 44.2167,38.4983 43.6047,37.9493 C42.9917,37.4003 42.5277,36.6813 42.2107,35.7953 C41.8947,34.9083 41.7357,33.7893 41.7357,32.4373 L41.7357,12.2903 L36.9847,12.2903 L36.9847,33.8943 C36.9847,37.2313 37.8077,39.6913 39.4547,41.2753 C41.1027,42.8593 43.5307,43.6513 46.7417,43.6513 C49.0217,43.6513 51.1127,43.1443 53.0127,42.1303 C54.9137,41.1163 56.4547,39.9343 57.6377,38.5823 L57.6377,42.8903 L62.3897,42.8903 L62.3897,12.2903 L57.6377,12.2903 L57.6377,34.7813 Z" id="Fill-29"></path>
            <polygon id="Fill-30" points="85.4502 27.1788 96.5372 12.2908 91.0252 12.2908 82.5352 23.9478 74.0462 12.2908 68.5342 12.2908 79.6212 27.1788 67.9012 42.8908 73.3492 42.8908 82.5352 30.3458 91.7222 42.8908 97.2342 42.8908"></polygon>
        </g>
    </g>
</svg>